<svg xmlns="http://www.w3.org/2000/svg" viewBox="0 0 512 512">
  <rect width="512" height="512" fill="#083344"/>
  <circle cx="256" cy="256" r="200" fill="#06b6d4" opacity="0.2"/>
  <path d="M256 120C180.9 120 120 180.9 120 256s60.9 136 136 136 136-60.9 136-136-60.9-136-136-136zm0 248c-61.8 0-112-50.2-112-112s50.2-112 112-112 112 50.2 112 112-50.2 112-112 112zm-20-160h40v80h-40v-80z" fill="#ecfeff"/>
  <path d="M160 256c0-53 43-96 96-96s96 43 96 96" fill="none" stroke="#ecfeff" stroke-width="24" stroke-linecap="round"/>
</svg>
